<svg width="55" height="55" viewBox="0 0 55 55" fill="none" xmlns="http://www.w3.org/2000/svg">
<g id="New Game">
<rect id="Rectangle 19" x="0.5" y="0.5" width="54" height="54" fill="#111111" fill-opacity="0.7" stroke="#566583"/>
<path id="Vector" d="M30 9H26V29H30V9ZM39.66 13.34L36.82 16.18C39.98 18.72 42 22.62 42 27C42 34.74 35.74 41 28 41C20.26 41 14 34.74 14 27C14 22.62 16.02 18.72 19.16 16.16L16.34 13.34C12.46 16.64 10 21.52 10 27C10 36.94 18.06 45 28 45C37.94 45 46 36.94 46 27C46 21.52 43.54 16.64 39.66 13.34Z" fill="#566583"/>
</g>
</svg>
